<?xml version="1.0" encoding="UTF-8"?>
<svg width="20px" height="24px" viewBox="0 0 20 24" version="1.1" xmlns="http://www.w3.org/2000/svg" xmlns:xlink="http://www.w3.org/1999/xlink">
    <!-- Generator: Sketch 54.1 (76490) - https://sketchapp.com -->
    <title>Icons / Delivery / ICO UPS</title>
    <desc>Created with Sketch.</desc>
    <g id="03-Style" stroke="none" stroke-width="1" fill="none" fill-rule="evenodd">
        <g id="Icons" transform="translate(-129.000000, -2527.000000)">
            <g id="Delivery" transform="translate(85.000000, 2059.000000)">
                <g id="ICO-UPS" transform="translate(29.000000, 468.000000)">
                    <g id="Icons-/-Delivery-/-ICO-UPS" transform="translate(15.000000, 0.000000)">
                        <g id="Icon-/-UPS">
                            <path d="M9.99847165,23 C10.2226298,22.907292 15.6044628,20.6556717 17.2968567,19.3133785 C19.0656681,17.9089513 20,15.8960047 20,13.4915148 L20,2.17226527 L19.8583728,2.09730988 C15.5453665,-0.14839293 10.2144786,-0.00341343323 9.99032044,0.00447660739 C9.78348362,-0.00341343323 4.45361455,-0.14839293 0.141627184,2.09730988 L0,2.17226527 L0,13.4915148 C0,15.8960047 0.934331856,17.9089513 2.70212441,19.3133785 C4.39451831,20.6556717 9.77533242,22.907292 9.99847165,23" id="Fill-1" fill="#000000"></path>
                            <path d="M0.794,14.1404571 C0.794,16.3773271 1.62,18.2417209 3.178,19.5282735 C4.578,20.6829494 8.819,22.6027113 9.998,23.1271979 C11.179,22.6027113 15.421,20.6829494 16.819,19.5282735 C18.381,18.2417209 19.205,16.3773271 19.205,14.1404571 L19.205,2.37826613 C13.303,1.82659884 6.321,2.1648474 0.794,7.26776988 L0.794,14.1404571 Z M9.998,24 C9.998,24 4.405,21.5728652 2.677,20.1463825 C0.87,18.6554714 0,16.5625584 0,14.1404571 L0,2.20813516 C4.416,-0.184772063 9.998,0.00347936756 9.998,0.00347936756 C9.998,0.00347936756 15.583,-0.184772063 20,2.20813516 L20,14.1404571 C20,16.5625584 19.13,18.6554714 17.323,20.1463825 C15.595,21.5728652 9.998,24 9.998,24 L9.998,24 Z" id="Fill-3" fill="#FDBD10"></path>
                            <path d="M15.8786663,13.0520547 C16.7272179,13.5326375 17.0694816,13.8488103 17.0826035,14.4326762 C17.0990059,15.0808306 16.6342708,15.4718311 15.92678,15.4686694 C15.3111427,15.4644537 14.5763145,15.13458 14.0831486,14.7119623 L14.0831486,16.4245654 C14.6867575,16.7702477 15.4412685,17 16.2023406,17 C18.1093947,17 18.9601333,15.7026373 18.9973121,14.5138273 C19.0333974,13.4304082 18.7217515,12.6094127 17.1099409,11.6977809 C16.3904216,11.2909718 15.8228981,11.0232787 15.8414875,10.3456149 C15.8600769,9.68586747 16.4297874,9.45400737 16.9754411,9.45927691 C17.6501271,9.46454646 18.3007562,9.82498354 18.7042556,10.2233614 L18.7042556,8.60666406 C18.3641789,8.35477967 17.6468466,7.97115658 16.5872506,8.00171996 C15.3177037,8.03860679 13.9912951,8.92283693 14.000043,10.4246581 C14.0033235,11.4132253 14.2887255,12.1530698 15.8786663,13.0520547" id="Fill-6" fill="#FDBD10"></path>
                            <path d="M9.87619723,9.53242039 C10.0294431,9.46213496 10.2869812,9.40669856 10.5413267,9.40669856 C11.6300106,9.40669856 12.0812345,10.215476 12.0812345,12.1715888 C12.0812345,14.0801848 11.565094,15.0018149 10.4849237,15.0018149 C10.2327066,15.0018149 10.0102873,14.9434087 9.87619723,14.8968817 L9.87619723,9.53242039 Z M9.87619723,16.3243689 C10.0634977,16.3748556 10.3359347,16.4233625 10.7211777,16.4233625 C12.8038311,16.4233625 14,14.677116 14,12.1270417 C14,9.58191718 12.7687123,8 10.5285562,8 C9.50478893,8 8.67896417,8.2138261 8,8.62167959 L8,20 L9.87619723,20 L9.87619723,16.3243689 Z" id="Fill-8" fill="#FDBD10"></path>
                            <path d="M4.48628712,16 C5.5076603,16 6.36258748,15.761694 7,15.3214499 L7,8 L5.33459429,8 L5.33459429,14.3615265 C5.15301683,14.4878574 4.88443352,14.5682498 4.54492151,14.5682498 C3.78078305,14.5682498 3.66729714,13.8590741 3.66729714,13.3805479 L3.66729714,8 L2,8 L2,13.3049408 C2,15.0946285 2.83695858,16 4.48628712,16" id="Fill-10" fill="#FDBD10"></path>
                        </g>
                    </g>
                </g>
            </g>
        </g>
    </g>
</svg>