<svg xmlns:xlink="http://www.w3.org/1999/xlink" xmlns="http://www.w3.org/2000/svg" version="1.1" viewBox="0 0 13 13" height="13px" width="13px">
    <title>750CA8EF-4E55-41AF-BC62-DF2906517569</title>
    <g fill-rule="evenodd" fill="none" stroke-width="1" stroke="none" id="DO-NOT-USE---Footer">
        <g fill="#FFFFFF" transform="translate(-1337.000000, -145.000000)" id="Footer---1536---Certifications">
            <g transform="translate(1336.000000, 90.000000)" id="follow">
                <g transform="translate(1.000000, 52.000000)" id="instagram">
                    <g transform="translate(0.000000, 3.000000)" id="instagram-icon">
                        <path id="Shape" d="M6.4999871,1.17119488 C8.23557035,1.17119488 8.44113321,1.17780014 9.12653198,1.20907191 C9.76027556,1.23799572 10.1044456,1.34388627 10.3335139,1.43287664 C10.6368914,1.55079082 10.8534458,1.6916686 11.0808886,1.91911139 C11.3083314,2.14655417 11.4492092,2.3631086 11.5670976,2.66648605 C11.6561137,2.89555435 11.7620043,3.23972444 11.7909281,3.87344222 C11.8221999,4.55886679 11.8288051,4.76442965 11.8288051,6.5000129 C11.8288051,8.23559615 11.8221999,8.44115902 11.7909281,9.12655778 C11.7620043,9.76030136 11.6561137,10.1044715 11.5670976,10.3335397 C11.4492092,10.6369172 11.3083314,10.8534716 11.0808886,11.0809144 C10.8534458,11.3083572 10.6368914,11.449235 10.3335139,11.5671234 C10.1044456,11.6561395 9.76027556,11.7620301 9.12653198,11.7909539 C8.44123642,11.8222257 8.23567356,11.8288309 6.4999871,11.8288309 C4.76430064,11.8288309 4.55873778,11.8222257 3.87344222,11.7909539 C3.23969864,11.7620301 2.89552855,11.6561395 2.66648605,11.5671234 C2.3630828,11.449235 2.14652837,11.3083572 1.91908558,11.0809144 C1.6916428,10.8534716 1.55076502,10.6369172 1.43287664,10.3335397 C1.34386046,10.1044715 1.23796992,9.76030136 1.20904611,9.12658358 C1.17777434,8.44115902 1.17116908,8.23559615 1.17116908,6.5000129 C1.17116908,4.76442965 1.17777434,4.55886679 1.20904611,3.87346802 C1.23796992,3.23972444 1.34386046,2.89555435 1.43287664,2.66648605 C1.55076502,2.3631086 1.6916428,2.14655417 1.91908558,1.91911139 C2.14652837,1.6916686 2.3630828,1.55079082 2.66648605,1.43287664 C2.89552855,1.34388627 3.23969864,1.23799572 3.87341642,1.20907191 C4.55884098,1.17780014 4.76440385,1.17119488 6.4999871,1.17119488 M7.35461562,0.00092961113 C8.06905693,0.00290402065 8.40472975,0.00835838713 8.73777274,0.0204027666 L8.90581647,0.0269885226 C8.99147014,0.0305703828 9.08087756,0.0345965153 9.17991589,0.0391155146 C9.8717909,0.0706969064 10.3442733,0.180560931 10.757747,0.341254483 C11.1851795,0.507366411 11.5476688,0.729623036 11.9090229,1.09097711 C12.270377,1.45233119 12.4926336,1.81482055 12.6587455,2.24225301 C12.8194391,2.65572671 12.9293031,3.1282091 12.9608845,3.82008411 C12.9654035,3.91912244 12.9694296,4.00852986 12.9730115,4.09418353 L12.9795972,4.26222726 C12.9916416,4.59527025 12.997096,4.93094307 12.9990704,5.64538438 L12.9999473,6.25811161 L12.9999473,6.25811161 L13,6.5000129 C13,6.58407513 12.999983,6.66463634 12.9999473,6.74191419 L12.9990704,7.35464142 C12.997096,8.06908273 12.9916416,8.40475555 12.9795972,8.73779854 L12.9730115,8.90584227 C12.9694296,8.99149594 12.9654035,9.08090336 12.9608845,9.17994169 C12.9293031,9.8718167 12.8194391,10.3442991 12.6587455,10.7577728 C12.4926336,11.1852053 12.270377,11.5476946 11.9090229,11.9090487 C11.5476688,12.2704028 11.1851795,12.4926594 10.757747,12.6587713 C10.3442733,12.8194649 9.8717909,12.9293289 9.17991589,12.9609103 C9.08087756,12.9654293 8.99147014,12.9694549 8.90581647,12.9730358 L8.73777274,12.9796193 C8.40472975,12.9916584 8.06905693,12.997103 7.35461562,12.9990728 L6.74188839,12.9999475 L6.74188839,12.9999475 L6.4999871,13 C6.41592487,13 6.33536372,12.9999831 6.25808598,12.9999475 L5.64536085,12.9990728 C4.93092356,12.997103 4.59525836,12.9916584 4.26221216,12.9796193 L4.09416585,12.9730358 C4.00851038,12.9694549 3.91910033,12.9654293 3.82005831,12.9609103 C3.1281833,12.9293289 2.65570091,12.8194649 2.24222721,12.6587713 C1.81479475,12.4926594 1.45230539,12.2704028 1.09095131,11.9090487 C0.729597234,11.5476946 0.507340609,11.1851795 0.341228681,10.7577728 C0.180535129,10.3442991 0.0706711046,9.8718167 0.0390897128,9.17994169 C0.0345707135,9.08090336 0.0305451076,8.99149594 0.02696415,8.90584227 L0.0203806564,8.73779854 C0.00834162614,8.40475555 0.00289702204,8.06908273 0.000927159389,7.35464142 L0.000927159389,5.64538438 C0.00289702204,4.93094307 0.00834162614,4.59527025 0.0203806564,4.26222726 L0.02696415,4.09418353 C0.0305451076,4.00852986 0.0345707135,3.91912244 0.0390897128,3.82008411 C0.0706711046,3.1282091 0.180535129,2.65572671 0.341228681,2.24225301 C0.507340609,1.81482055 0.729597234,1.45233119 1.09095131,1.09097711 C1.45230539,0.729623036 1.81479475,0.507366411 2.24222721,0.341254483 C2.65570091,0.180560931 3.1281833,0.0706969064 3.82005831,0.0391155146 C3.91910033,0.0345965153 4.00851038,0.0305703828 4.09416585,0.0269885226 L4.26221216,0.0204027666 C4.59525836,0.00835838713 4.93092356,0.00290402065 5.64536085,0.00092961113 Z M6.51289683,3.17261905 C4.66812052,3.17261905 3.17261905,4.66812052 3.17261905,6.51289683 C3.17261905,8.35767313 4.66812052,9.8531746 6.51289683,9.8531746 C8.35767313,9.8531746 9.8531746,8.35767313 9.8531746,6.51289683 C9.8531746,4.66812052 8.35767313,3.17261905 6.51289683,3.17261905 Z M6.51289683,4.34464045 C7.71037731,4.34464045 8.6811532,5.31541634 8.6811532,6.51289683 C8.6811532,7.71037731 7.71037731,8.6811532 6.51289683,8.6811532 C5.31541634,8.6811532 4.34464045,7.71037731 4.34464045,6.51289683 C4.34464045,5.31541634 5.31541634,4.34464045 6.51289683,4.34464045 Z M9.956362,2.24404762 C9.52899482,2.24404762 9.18253968,2.59047716 9.18253968,3.01784434 C9.18253968,3.44521153 9.52899482,3.79166667 9.956362,3.79166667 C10.3837292,3.79166667 10.7301587,3.44521153 10.7301587,3.01784434 C10.7301587,2.59047716 10.3837292,2.24404762 9.956362,2.24404762 Z"></path>
                    </g>
                </g>
            </g>
        </g>
    </g>
</svg>