<svg xmlns:xlink="http://www.w3.org/1999/xlink" xmlns="http://www.w3.org/2000/svg" version="1.1" viewBox="0 0 14 12" height="12px" width="14px">
    <title>140AC28F-7A4C-46EE-BB67-C66D2C12D144</title>
    <g fill-rule="evenodd" fill="none" stroke-width="1" stroke="none" id="DO-NOT-USE---Footer">
        <g fill="#FFFFFF" transform="translate(-1336.000000, -221.000000)" id="Footer---1536---Certifications">
            <g transform="translate(1336.000000, 90.000000)" id="follow">
                <g transform="translate(0.000000, 128.000000)" id="twitter">
                    <g transform="translate(0.000000, 3.000000)" id="twitter-icon">
                        <path id="Shape" d="M12.350766,1.89715441 C12.9440629,1.52275025 13.3993074,0.92907699 13.61296,0.221869132 C13.0574632,0.569406327 12.4436227,0.820742453 11.7886952,0.956810631 C11.266068,0.36747075 10.5191055,0 9.69243411,0 C8.10647414,0 6.82127135,1.3563484 6.82127135,3.02903366 C6.82127135,3.26650296 6.84510184,3.49790553 6.89440629,3.71890799 C4.50807067,3.59237325 2.39208781,2.3876932 0.974584727,0.553806153 C0.727240711,1.00274447 0.585901274,1.52275025 0.585901274,2.07742308 C0.585901274,3.12783475 1.09291542,4.05517839 1.8637084,4.59945111 C1.39285085,4.58385093 0.9499325,4.4460494 0.562070787,4.22071356 L0.562070787,4.25798064 C0.562070787,5.72613029 1.55144685,6.9507439 2.86705406,7.22808031 C2.62546223,7.29914777 2.37236603,7.3346815 2.10940893,7.3346815 C1.92451723,7.3346815 1.74373423,7.31648129 1.56952515,7.28094757 C1.93437812,8.48389427 2.99524564,9.36097068 4.25250924,9.38437094 C3.26888537,10.1973133 2.03052181,10.6809187 0.685331925,10.6809187 C0.453600986,10.6809187 0.22433527,10.6679185 0,10.6393182 C1.2712332,11.4981944 2.78077126,12 4.40288783,12 C9.68668193,12 12.5742795,7.38408205 12.5742795,3.38090423 C12.5742795,3.24916944 12.572636,3.11830131 12.5668838,2.98916655 C13.1281329,2.56189513 13.616247,2.02802253 14,1.42048245 C13.4847684,1.66141846 12.9309151,1.8243536 12.350766,1.89715441 Z"></path>
                    </g>
                </g>
            </g>
        </g>
    </g>
</svg>