<svg xmlns="http://www.w3.org/2000/svg" fill="none" viewBox="0 0 109 24" height="24" width="109">
<path fill="#4D6E89" d="M76.6251 12.4378C76.5946 11.0369 76.3205 10.7324 75.1631 10.7324H73.8828V8.61122H80.1272V11.9282C81.4196 9.76208 83.2351 8.37695 85.3839 8.37695C87.5655 8.37695 89.2789 9.69332 89.2789 12.9992V18.8942C89.2789 20.2646 89.5682 20.5996 90.7254 20.5996H92.0059V22.721H83.7049V20.6552H84.2993C85.4568 20.6552 85.7307 20.3203 85.7613 18.9498V13.6839C85.7613 11.9295 85.0664 11.066 83.4562 11.066C81.5071 11.066 80.1425 12.8511 80.1425 15.1654V18.9498C80.1425 20.3203 80.4318 20.6552 81.589 20.6552H82.1838V22.721H73.8828V20.5996H75.1631C76.3205 20.5996 76.5946 20.2646 76.6251 18.8942V12.4378Z"></path>
<path fill="#4D6E89" d="M60.6843 20.5996C59.5272 20.5996 59.2377 20.2646 59.2377 18.8942V12.9992C59.2377 9.69332 57.5246 8.37695 55.3429 8.37695C53.2495 8.37695 51.4829 9.69088 50.1896 11.764C49.8447 9.32154 48.4408 8.37695 46.5403 8.37695C44.3916 8.37695 42.8409 9.61836 41.5061 11.7613V8.61122H35.2617V10.7324H36.542C37.6994 10.7324 37.9735 11.0369 38.004 12.4378V18.8942C37.9735 20.2646 37.6994 20.5996 36.542 20.5996H35.2617V22.721H43.4511V20.6552H42.9679C41.8107 20.6552 41.5214 20.3202 41.5214 18.9498V15.1654C41.5214 12.8511 42.6634 11.0662 44.6125 11.0662C46.2227 11.0662 46.8066 11.9295 46.8066 13.6839V18.9498C46.7761 20.3202 46.502 20.6552 45.3446 20.6552H44.8614V22.721H52.3095V20.6552H51.7705C50.6132 20.6552 50.3239 20.3202 50.3239 18.9498V15.1654C50.3239 12.8511 51.466 11.0662 53.4149 11.0662C55.0252 11.0662 55.7203 11.9295 55.7203 13.6839V18.9498C55.6899 20.3202 55.4156 20.6552 54.2586 20.6552H53.7198V22.721H61.909V20.5996H60.6843Z"></path>
<path fill="#4D6E89" d="M72.2677 22.7211V20.5997H71.043C69.8859 20.5997 69.6116 20.2647 69.5812 18.8943V8.61133H63.4414V10.7325H64.6383C65.7957 10.7325 66.0696 11.037 66.1003 12.4379V18.8943C66.0696 20.2647 65.7957 20.5997 64.6383 20.5997H63.4414V22.7211H72.2677Z"></path>
<path fill="#4D6E89" d="M67.4141 6.64082C68.6955 6.64082 69.7344 5.60193 69.7344 4.32031C69.7344 3.03889 68.6955 2 67.4141 2C66.1326 2 65.0938 3.03889 65.0938 4.32031C65.0938 5.60193 66.1326 6.64082 67.4141 6.64082Z"></path>
<path fill="#4D6E89" d="M29.6431 15.6815C29.6431 18.9212 28.6506 21.083 26.18 21.083C23.7092 21.083 22.7167 18.9212 22.7167 15.6815C22.7167 12.4414 23.7092 10.2796 26.18 10.2796C28.6506 10.2796 29.6431 12.4414 29.6431 15.6815ZM18.6055 15.6815C18.6055 19.9145 21.764 22.986 26.18 22.986C30.5957 22.986 33.7545 19.9145 33.7545 15.6815C33.7545 11.4482 30.5957 8.37695 26.18 8.37695C21.764 8.37695 18.6055 11.4482 18.6055 15.6815Z"></path>
<path fill="#4D6E89" d="M103.893 15.6815C103.893 18.9212 102.901 21.083 100.43 21.083C97.9592 21.083 96.9667 18.9212 96.9667 15.6815C96.9667 12.4414 97.9592 10.2796 100.43 10.2796C102.901 10.2796 103.893 12.4414 103.893 15.6815ZM92.8555 15.6815C92.8555 19.9145 96.014 22.986 100.43 22.986C104.846 22.986 108.004 19.9145 108.004 15.6815C108.004 11.4482 104.846 8.37695 100.43 8.37695C96.014 8.37695 92.8555 11.4482 92.8555 15.6815Z"></path>
<path fill="#4D6E89" d="M16.6839 20.5989C15.5266 20.5989 15.2373 20.264 15.2373 18.8935V2.4375H8.86644V4.67008H10.258C11.4152 4.67008 11.6895 4.97461 11.7199 6.37552V10.7297C11.0278 9.48862 9.47362 8.37627 7.42252 8.37627C3.74826 8.37627 0.90625 11.5031 0.90625 15.7364C0.90625 20.118 3.59985 22.9854 6.97747 22.9854C9.47362 22.9854 11.3245 21.5024 12.0536 19.5193V22.7203H17.6305V20.5989H16.6839ZM8.53486 20.5818C6.36071 20.5818 5.01597 18.8649 5.01597 15.6252C5.01597 12.3851 6.3423 10.5014 8.36804 10.5014C10.5422 10.5014 11.7755 12.756 11.7755 15.4026C11.7755 18.6425 10.5606 20.5818 8.53486 20.5818Z"></path>
</svg>
