<svg xmlns="http://www.w3.org/2000/svg" fill="none" viewBox="0 0 122 24" height="24" width="122">
<path fill="#4D6E89" d="M107.032 6.25708C107.032 5.06698 107.401 4.6566 108.017 4.6566C108.632 4.6566 109.125 4.90283 109.699 6.25708L113.188 14.1774V19.184C113.188 20.3741 112.695 20.7024 111.341 20.8665V21.1948H117.784V20.8665C116.389 20.7024 115.937 20.333 115.937 19.184V14.1774L119.302 6.54434C119.959 5.06698 120.615 4.73868 121.6 4.57453V4.24623H116.881V4.57453C118.482 4.73868 119.056 5.19009 118.605 6.25708L115.65 13.0283L112.613 6.09292C112.203 5.14906 112.449 4.86179 114.214 4.61557V4.28726H104.077V4.61557C105.678 4.86179 106.17 5.14906 106.17 6.29811V15.5726L98.7424 4.28726H95.09V4.61557C96.2801 4.77972 96.6494 5.14906 96.6494 6.29811V19.225C96.6494 20.4151 96.3211 20.8255 95.9108 20.8255C95.5414 20.8255 95.3362 20.6613 94.8027 19.225L89.3037 4.20519H88.9754L83.6815 18.5684C83.107 20.1689 82.2042 20.7024 81.3013 20.9075V21.2358H86.1438V20.9075C84.4612 20.7434 83.9277 20.0868 84.2971 19.0198L85.4872 15.7368H90.4938L91.6428 18.8146C92.1353 20.2099 91.848 20.6203 90.4117 20.8665V21.1948H99.6042V20.8665C98.0037 20.6203 97.5112 20.333 97.5112 19.184V7.61132L106.499 21.2358H107.032V6.25708ZM42.2334 12.7C42.2334 7.44717 44.7367 4.69764 47.6504 4.69764C49.374 4.69764 50.482 5.06698 51.1386 5.76462C51.631 6.25708 52.0004 6.95472 52.4108 8.06274H52.7391V4.53349C51.0565 4.20519 49.5381 4 48.0197 4C43.6287 4 39.0735 6.8316 39.0735 12.7C39.0735 18.5684 43.6287 21.4 47.7325 21.4C49.5381 21.4 51.1386 21.1127 52.657 20.6613L53.1494 17.3373L52.8622 17.2552C52.4928 17.9528 52.0414 18.5684 51.549 19.1019C50.482 20.1689 49.0457 20.7434 47.6093 20.7434C44.8188 20.7024 42.2334 18.0349 42.2334 12.7ZM78.6339 13.1925C78.2645 13.1925 77.7721 13.1514 77.2796 13.0693V4.86179H78.6339C80.891 4.86179 81.8759 6.05189 81.8759 9.0066C81.8759 12.0024 80.8499 13.1925 78.6339 13.1925ZM25.9004 4.24623V8.30896H26.2287C26.7211 5.72358 27.7471 4.90283 29.4707 4.90283H30.2914V19.184C30.2914 20.3741 29.799 20.7024 28.4447 20.8665V21.1948H34.8876V20.8665C33.4924 20.7024 33.041 20.333 33.041 19.184V4.86179H33.8617C35.5853 4.86179 36.6112 5.68255 37.1037 8.26792H37.432V4.20519H25.9004V4.24623ZM20.7707 21.4C23.5612 21.4 26.516 19.7995 26.516 16.5165C26.516 14.5877 25.49 12.9873 23.6843 12.0024L20.4834 10.2377C18.8009 9.29387 18.3084 8.43208 18.3084 7.20094C18.3084 5.80566 19.3343 4.69764 21.2631 4.69764C22.207 4.69764 22.9046 4.94387 23.4792 5.47736C23.9716 5.96981 24.4641 6.79057 24.9155 8.26792H25.2027V4.53349C24.0537 4.20519 22.8636 4 21.4683 4C18.7188 4 16.6669 5.72359 16.6669 8.63726C16.6669 10.484 17.6928 12.1665 19.3754 13.1514L22.3301 14.7929C24.0126 15.7368 24.5461 16.6396 24.5461 17.9939C24.5461 19.5943 22.9046 20.7434 21.099 20.7434C19.9089 20.7434 18.924 20.333 18.2263 19.6354C17.7749 19.184 17.2825 18.4863 16.9542 17.5835H18.8829V17.2552C18.3494 17.1321 18.0211 17.05 17.5697 15.983L13.7943 6.99575H13.466L9.77255 15.7778C9.2801 16.9679 8.9518 17.1731 8.37727 17.2552V17.5835H11.6603V17.2552C10.4702 17.1321 10.1419 16.5575 10.4292 15.8189L11.0037 14.4236H14.3277L15.0664 16.1472C15.3947 16.9269 14.9023 17.1321 13.7122 17.2142V17.5425H16.3386V20.7844C17.6518 21.1538 19.3343 21.4 20.7707 21.4ZM62.465 21.2358L67.3485 7.65236L67.7178 19.225C67.7589 20.3741 67.3075 20.7024 65.9122 20.8665V21.1948H79.3726V20.8665C77.7721 20.6203 77.2796 20.333 77.2796 19.184V13.7259C77.8131 13.808 78.3466 13.8491 78.757 13.8491C81.999 13.8491 84.7895 12.659 84.7895 9.04764C84.7895 5.43632 81.999 4.24623 78.757 4.24623H72.9707V4.57453C74.1608 4.73868 74.5301 5.10802 74.5301 6.25708V19.184C74.5301 20.3741 74.0377 20.8665 72.6834 20.8665H72.6424C71.206 20.8665 70.5905 20.333 70.5494 19.225L70.057 6.29811C70.016 5.10802 70.4263 4.73868 71.6985 4.57453V4.24623H67.7178L63.3678 16.4344L59.0178 4.24623H54.7499V4.57453C56.0221 4.73868 56.4325 5.14906 56.3914 6.29811L55.94 18.6915C55.899 19.9226 55.2424 20.6613 54.0523 20.8665V21.1948H58.5664V20.8665C57.4174 20.7024 56.7608 19.9637 56.8018 18.6915L57.1711 7.40613L62.1367 21.1948L62.465 21.2358ZM49.374 17.6656C51.549 17.6656 54.3395 15.7368 54.3395 12.7C54.3395 9.70425 51.59 7.73443 49.374 7.73443C47.199 7.73443 44.4084 9.66321 44.4084 12.7C44.4084 15.6958 47.1579 17.6656 49.374 17.6656ZM49.374 8.43208C50.7693 8.43208 51.7131 9.58113 51.7131 12.7C51.7131 15.8599 50.7282 16.9679 49.374 16.9679C47.9787 16.9679 47.0348 15.8189 47.0348 12.7C47.0348 9.54009 47.9787 8.43208 49.374 8.43208ZM90.2886 15.0392H85.7334L87.9905 8.80142L90.2886 15.0392ZM14.1226 13.767H11.332L12.7273 10.3608L14.1226 13.767ZM8.78765 14.6288H9.11595V9.54009H8.78765C8.25416 11.3458 7.72067 11.7561 6.73576 11.7561H4.84802V4.86179H7.84378C9.56737 4.86179 10.5933 5.68255 11.0858 8.26792H11.4141V4.20519H0.539062V4.53349C1.72916 4.69764 2.0985 5.06698 2.0985 6.21604V19.1429C2.0985 20.333 1.72916 20.6613 0.539062 20.8255V21.1538H6.94095V20.8255C5.34048 20.5792 4.84802 20.292 4.84802 19.1429V12.3717H6.73576C7.67963 12.4127 8.25416 12.8231 8.78765 14.6288Z"></path>
</svg>
