<svg xmlns="http://www.w3.org/2000/svg" fill="none" viewBox="0 0 87 24" height="24" width="87">
<path fill="#4D6E89" d="M48.7561 8.17103C48.7561 5.60362 48.7995 3.21328 48.9297 1L42.2876 2.2837V2.90342L42.9388 2.99195C43.4163 3.03622 43.7202 3.21328 43.8939 3.47887C44.0675 3.78873 44.1977 4.23139 44.2846 4.89537C44.3714 6.17907 44.4582 9.1006 44.4148 13.7042C44.4148 18.2636 44.3714 21.1408 44.2846 22.2475C46.6723 22.7787 48.539 23 49.9282 23C52.5329 23 54.5733 22.2475 56.0493 20.6982C57.5254 19.1932 58.3068 17.0684 58.3068 14.4567C58.3068 12.3763 57.7424 10.6499 56.6137 9.27767C55.485 7.90543 54.0524 7.24145 52.3593 7.24145C51.2306 7.24145 50.0584 7.55131 48.7561 8.17103ZM48.8863 21.8048C48.7995 20.3883 48.7126 16.1388 48.7126 9.18913C49.1033 9.05634 49.6243 8.96781 50.2755 8.96781C51.3174 8.96781 52.1422 9.49899 52.75 10.6056C53.3578 11.7123 53.6617 13.0402 53.6617 14.7223C53.6617 16.8028 53.3144 18.4849 52.6198 19.9014C51.9252 21.2736 51.0569 21.9819 49.9716 21.9819C49.6243 21.8934 49.277 21.8491 48.8863 21.8048ZM17.3689 1.44266H0.00390625V2.32797L0.915567 2.4165C1.61017 2.5493 2.0877 2.81489 2.39159 3.21328C2.69548 3.65594 2.86913 4.36419 2.91254 5.33803C3.25984 10.1187 3.25984 14.5895 2.91254 18.7062C2.82571 19.6801 2.65206 20.3883 2.39159 20.831C2.0877 21.2736 1.61017 21.5392 0.915567 21.6278L0.00390625 21.7606V22.6459H11.2043V21.7606L10.0322 21.672C9.33758 21.5835 8.86004 21.2736 8.55615 20.8753C8.25227 20.4326 8.07862 19.7243 8.0352 18.7505C7.90497 16.9799 7.81814 14.9437 7.81814 12.6861L10.1624 12.7304C11.4214 12.7746 12.2896 13.7485 12.7237 15.6962H13.592V8.48089H12.7237C12.2896 10.3843 11.4648 11.3581 10.1624 11.4024L7.81814 11.4467C7.81814 7.46278 7.90497 4.62978 8.0352 2.90342H11.4648C13.8959 2.90342 15.5456 4.49698 16.5006 7.6841L17.5425 7.37425L17.3689 1.44266ZM15.3285 15.0765C15.3285 17.3783 15.9797 19.2817 17.2386 20.7867C18.4976 22.2917 20.3643 23 22.7086 23C25.0529 23 26.963 22.2475 28.3522 20.6982C29.7414 19.1932 30.3926 17.2897 30.3926 14.9879C30.3926 12.6861 29.7414 10.7827 28.4825 9.27767C27.2235 7.77264 25.3568 7.06439 23.0125 7.06439C20.6682 7.06439 18.7581 7.8169 17.3689 9.3662C15.9797 10.8712 15.3285 12.7746 15.3285 15.0765ZM25.0095 10.0302C25.5304 11.3139 25.7475 12.996 25.7475 15.0322C25.7475 19.7243 24.7924 22.0262 22.9257 22.0262C21.9706 22.0262 21.2326 21.3622 20.7116 20.0342C20.1907 18.7062 19.9736 17.0241 19.9736 15.0322C19.9736 10.3843 20.9287 8.08249 22.7954 8.08249C23.7505 8.03823 24.4885 8.70221 25.0095 10.0302ZM61.693 20.7867C63.1256 22.2475 64.9489 23 67.1195 23C68.4653 23 69.6374 22.7344 70.6793 22.159C71.7212 21.6278 72.5461 20.9638 73.1104 20.167L72.6763 19.6358C71.7212 20.3883 70.6359 20.7425 69.377 20.7425C67.6405 20.7425 66.2947 20.167 65.383 18.9718C64.4279 17.7767 63.9938 16.2716 64.0806 14.3239H73.3709C73.3709 12.1992 72.8499 10.4728 71.7646 9.1006C70.6793 7.77264 69.1599 7.10865 67.2063 7.10865C64.7752 7.10865 62.9085 7.90543 61.5627 9.45473C60.2169 11.004 59.5657 12.9074 59.5657 15.165C59.5657 17.4668 60.2603 19.326 61.693 20.7867ZM64.9055 9.67606C65.383 8.61368 65.9908 8.08249 66.8156 8.08249C68.118 8.08249 68.7692 9.76459 68.7692 13.173L64.1675 13.2616C64.2109 11.9336 64.4279 10.7384 64.9055 9.67606ZM85.0488 7.90543C83.8767 7.37425 82.4007 7.06439 80.6208 7.06439C78.7974 7.06439 77.3648 7.55131 76.2795 8.48089C75.1942 9.41046 74.6299 10.5614 74.6299 11.9336C74.6299 13.1288 74.9771 14.0583 75.6283 14.7223C76.2795 15.3863 77.3214 15.9618 78.6672 16.4487C79.8828 16.8913 80.751 17.334 81.1851 17.7324C81.6192 18.175 81.8797 18.662 81.8797 19.326C81.8797 19.9457 81.6627 20.5211 81.1851 20.9638C80.751 21.4507 80.1432 21.672 79.3618 21.672C77.4517 21.672 76.0191 20.2555 75.0206 17.4225L74.2826 17.6439L74.4562 22.0704C76.0191 22.6901 77.7555 23 79.6657 23C81.6627 23 83.1821 22.5573 84.3108 21.6278C85.4395 20.7425 86.0039 19.4588 86.0039 17.8652C86.0039 16.8028 85.7434 15.9175 85.1791 15.2535C84.6147 14.5895 83.703 14.0141 82.4007 13.4829C80.9681 12.9517 79.9696 12.4648 79.4486 12.0221C78.9277 11.5795 78.6672 11.0483 78.6672 10.3843C78.6672 9.72032 78.8409 9.18913 79.2316 8.74648C79.6223 8.30382 80.0998 8.12676 80.7076 8.12676C82.4441 8.12676 83.703 9.41046 84.4845 11.9336L85.2225 11.7123L85.0488 7.90543ZM43.2861 7.50704C42.6783 7.19718 42.0271 7.06439 41.2891 7.06439C40.5511 7.06439 39.8131 7.37425 38.9883 7.99396C38.1634 8.61368 37.5556 9.45473 37.0781 10.6056L37.1215 7.06439L30.5228 8.39235V9.01207L31.174 9.05634C31.9989 9.14487 32.4764 9.80885 32.5632 11.004C32.8237 13.7485 32.8237 16.67 32.5632 19.7686C32.4764 20.9638 31.9989 21.5835 31.174 21.7163L30.5228 21.8048V22.6459H39.7263V21.8048L38.5541 21.7163C37.7293 21.6278 37.2518 20.9638 37.1649 19.7686C36.9045 17.2012 36.861 14.4567 37.0781 11.6237C37.3386 11.1811 37.9029 10.9155 38.7712 10.827C39.6394 10.7384 40.6379 11.004 41.6798 11.6237L43.2861 7.50704Z"></path>
</svg>
