<svg xmlns="http://www.w3.org/2000/svg" fill="none" viewBox="0 0 151 24" height="24" width="151">
<path fill="#4D6E89" d="M11.3188 4.06612C11.3188 2.41322 9.76046 2 8.53015 2V2.24793C9.26833 2.24793 9.84248 2.49587 9.84248 3.07438C9.84248 3.40496 9.59642 3.90083 8.85823 3.90083C8.28409 3.90083 7.05378 3.57025 6.15155 3.23967C5.08528 2.82645 4.10103 2.49587 3.28083 2.49587C1.64041 2.49587 0.492124 3.73554 0.492124 5.1405C0.492124 6.38016 1.39435 6.79339 1.72243 6.95868L1.80445 6.79339C1.64041 6.6281 1.39435 6.46281 1.39435 5.96694C1.39435 5.63636 1.72243 5.05785 2.54264 5.05785C3.28083 5.05785 4.26507 5.38843 5.5774 5.80165C6.72569 6.13223 7.956 6.38017 8.61217 6.46281V9.02479L7.38186 10.0992V10.1818L8.61217 11.2562V14.8099C7.956 15.2231 7.21782 15.3058 6.56165 15.3058C5.33134 15.3058 4.26507 14.9752 3.36285 13.9835L6.72569 12.3306V6.6281L2.62466 8.44628C2.95274 7.3719 3.85497 6.6281 4.7572 6.13223L4.67518 5.8843C2.21456 6.54545 0 8.8595 0 11.6694C0 14.9752 2.70668 17.4545 5.74144 17.4545C9.02227 17.4545 11.1548 14.8099 11.1548 12.0826H10.9908C10.4986 13.157 9.76046 14.1488 8.85823 14.6446V11.2562L10.1706 10.1818V10.0992L8.85823 9.02479V6.46281C10.0885 6.46281 11.3188 5.63636 11.3188 4.06612ZM4.18305 13.157L3.19881 13.6529C2.62466 12.9091 2.29658 11.9174 2.29658 10.5124C2.29658 9.93388 2.29658 9.27273 2.46062 8.77686L4.18305 8.03306V13.157ZM12.8772 15.0579L11.811 15.8843L11.975 16.0496L12.4671 15.6364L14.2716 17.2893L16.7322 15.6364L16.6502 15.4711L15.994 15.8843L15.1738 15.0579V9.43802L15.83 8.94215L17.2243 10.0992V15.1405C17.2243 18.281 16.5682 18.7769 15.1738 19.2727V19.5207C17.4704 19.6033 19.6029 18.8595 19.6029 14.8099V9.35537L20.3411 8.77686L20.1771 8.61157L19.5209 9.10744L17.4704 7.3719L15.1738 9.10744V2.33058H15.0098L12.1391 4.31405V4.47934C12.4671 4.64463 12.9593 4.80992 12.9593 5.71901L12.8772 15.0579ZM27.887 14.1488L25.8365 15.719L23.786 14.0661V13.0744L27.641 10.4298V10.3471L25.6725 7.3719L21.4074 9.68595V15.1405L20.5872 15.8017L20.7512 15.9669L21.4894 15.3884L24.2781 17.4545L27.969 14.4793L27.887 14.1488ZM23.786 12.7438V8.69421L23.95 8.61157L25.7545 11.5041L23.786 12.7438ZM43.553 3.32231C43.553 3.07438 43.4709 2.82645 43.3889 2.57851H43.2249C42.9788 3.23967 42.6507 3.57025 41.8305 3.57025C41.0923 3.57025 40.6002 3.15702 40.2721 2.82645L37.8935 5.55372L38.0576 5.71901L38.8778 4.97521C39.3699 5.38843 39.78 5.71901 40.9283 5.80165V12.6612L36.0891 4.31405C35.679 3.65289 35.1048 2.7438 33.9565 2.7438C32.6442 2.7438 31.4959 3.90083 31.66 5.71901H31.906C31.9881 5.22314 32.2341 4.64463 32.8083 4.64463C33.2184 4.64463 33.6285 5.05785 33.8745 5.47107V8.19835C32.3982 8.19835 31.4139 8.8595 31.4139 10.0992C31.4139 10.7603 31.742 11.7521 32.7262 12V11.8347C32.5622 11.6694 32.4802 11.5041 32.4802 11.2562C32.4802 10.843 32.8083 10.5124 33.3824 10.5124H33.7925V13.9835C32.0701 13.9835 30.6757 14.9752 30.6757 16.6281C30.6757 18.1983 31.988 18.9421 33.4644 18.8595V18.6942C32.5622 18.6116 32.1521 18.1983 32.1521 17.6198C32.1521 16.876 32.6442 16.5455 33.3004 16.5455C33.9565 16.5455 34.5307 16.9587 34.9408 17.4545L37.3194 14.8099L37.1553 14.6446L36.5812 15.3058C35.679 14.4793 35.1869 14.2314 34.1206 14.0661V5.80165L40.6822 17.3719H41.1744V5.80165C42.4047 5.71901 43.553 4.72727 43.553 3.32231ZM49.5405 14.1488L47.49 15.719L45.4394 14.0661V13.0744L49.2944 10.4298V10.3471L47.3259 7.3719L43.0608 9.68595V15.1405L42.2406 15.8017L42.4047 15.9669L43.1429 15.3884L45.9316 17.4545L49.6225 14.4793L49.5405 14.1488ZM45.4394 12.7438V8.69421L45.6035 8.61157L47.4079 11.5041L45.4394 12.7438ZM62.9098 8.28099L62.3357 8.69421L60.7773 7.3719L58.9728 9.02479L59.711 9.7686V15.9669L57.7425 14.7273V9.60331L58.3987 9.19008L56.5122 7.3719L54.7078 9.02479L55.446 9.7686V15.719L55.1999 15.8843L53.4775 14.6446V9.68595C53.4775 8.52893 52.9033 8.19835 52.2472 7.78512C51.673 7.3719 51.3449 7.12397 51.3449 6.54545C51.3449 6.04959 51.837 5.80165 52.0831 5.63636V5.47107C51.4269 5.47107 49.7045 6.13223 49.7045 7.70248C49.7045 8.52893 50.1146 8.8595 50.5247 9.27273C50.9348 9.68595 51.3449 10.0165 51.3449 10.7603V15.5537L50.4427 16.2149L50.6067 16.3802L51.4269 15.719L53.3134 17.3719L55.3639 15.9669L57.6605 17.3719L62.0076 14.8099V9.27273L63.0739 8.44628L62.9098 8.28099ZM78.1657 3.73554L77.3455 4.47934L75.541 2.82645L72.8343 4.80992V2.99174H72.5883L72.6703 16.3802C72.4242 16.3802 71.686 16.2149 71.1119 16.0496L70.9479 4.89256C70.9479 4.06612 70.3737 2.90909 68.8973 2.90909C67.421 2.90909 66.4367 4.06612 66.4367 5.22314H66.6828C66.7648 4.72727 67.0109 4.31405 67.503 4.31405C67.9951 4.31405 68.4052 4.64463 68.4052 5.71901V8.94215C66.9288 9.02479 66.0266 9.85124 66.0266 10.9256C66.0266 11.5868 66.3547 12.5785 67.3389 12.5785V12.4132C67.0109 12.2479 66.9288 12 66.9288 11.8347C66.9288 11.3388 67.3389 11.1736 67.9951 11.1736H68.3232V16.2975C67.0929 16.7107 66.6008 17.6198 66.6008 18.6116C66.6008 20.0165 67.667 21.0083 69.3074 21.0083C70.4557 21.0083 71.44 20.843 72.4242 20.595C73.2444 20.4298 74.3107 20.1818 74.8028 20.1818C75.459 20.1818 75.7051 20.5124 75.7051 20.9256C75.7051 21.5041 75.459 21.7521 75.1309 21.8347V22C76.4432 21.7521 77.2634 20.9256 77.2634 19.6859C77.2634 18.4463 76.0331 17.7025 74.7208 17.7025C74.0646 17.7025 72.6703 17.9504 71.686 18.1157C70.5378 18.3636 69.3895 18.5289 69.0614 18.5289C68.4872 18.5289 67.8311 18.281 67.8311 17.4545C67.8311 16.7934 68.4052 16.2149 69.7996 16.2149C70.5378 16.2149 71.44 16.2975 72.3422 16.5455C73.3264 16.7934 74.2287 17.0413 75.0489 17.0413C76.2792 17.0413 77.3455 16.6281 77.3455 14.8926V4.72727L78.3297 3.90083L78.1657 3.73554ZM74.8028 8.77686C74.5568 9.02479 74.2287 9.27273 73.8186 9.27273C73.4085 9.27273 72.9984 9.02479 72.8343 8.77686V5.1405L73.6545 4.56198L74.8028 5.63636V8.77686ZM74.8028 11.2562C74.6388 11.0909 74.2287 10.843 73.8186 10.843C73.4085 10.843 72.9984 11.0909 72.8343 11.2562V9.10744C72.9984 9.27273 73.4085 9.52066 73.8186 9.52066C74.2287 9.52066 74.6388 9.27273 74.8028 9.10744V11.2562ZM74.8028 15.1405C74.8028 15.8017 74.3927 16.4628 73.4905 16.4628H72.8343V11.5868C72.9984 11.4215 73.4085 11.1736 73.8186 11.1736C74.2287 11.1736 74.5568 11.4215 74.8028 11.5868V15.1405ZM86.0396 9.27273L83.415 7.3719L79.396 9.68595V15.0579L78.5758 15.719L78.6578 15.8843L79.314 15.3884L81.9386 17.3719L86.0396 14.8926V9.27273ZM81.6105 14.4793V8.52893L83.6611 10.0165V15.8843L81.6105 14.4793ZM93.8316 7.53719H93.6676C93.4215 7.70248 93.1755 7.86777 92.9294 7.86777C92.6013 7.86777 92.1912 7.70248 92.0272 7.45455H91.8631L90.4688 9.02479L89.0744 7.45455L86.6138 9.10744L86.6958 9.27273L87.352 8.8595L88.1722 9.7686V14.9752L87.1059 15.8017L87.27 15.9669L87.7621 15.5537L89.7306 17.2066L92.2732 15.4711L92.1912 15.3058L91.453 15.719L90.4688 14.8926V9.10744C90.8789 9.52066 91.371 9.93388 91.9451 9.93388C93.0934 10.0165 93.7496 8.8595 93.8316 7.53719ZM103.674 15.4711L100.885 17.3719L97.1124 11.5868L99.8191 7.3719H99.9832C100.311 7.70248 100.803 8.03306 101.378 8.03306C101.952 8.03306 102.362 7.70248 102.608 7.3719H102.772C102.69 9.02479 101.542 10.0165 100.721 10.0165C99.9011 10.0165 99.491 9.60331 98.9989 9.35537L98.7529 9.7686L102.854 15.8843L103.674 15.3884V15.4711ZM94.6518 15.0579L93.5855 15.8843L93.7496 16.0496L94.2417 15.6364L96.0462 17.2893L98.5068 15.6364L98.3428 15.4711L97.6866 15.8843L96.8664 15.0579V2.33058H96.7844L93.8316 4.31405V4.47934C94.1597 4.64463 94.6518 4.72727 94.6518 5.71901V15.0579ZM117.29 4.06612C117.29 2.41322 115.731 2 114.501 2V2.24793C115.239 2.24793 115.813 2.49587 115.813 3.07438C115.813 3.40496 115.567 3.90083 114.829 3.90083C114.255 3.90083 113.024 3.57025 112.122 3.23967C111.056 2.90909 110.072 2.57851 109.251 2.57851C107.611 2.57851 106.463 3.81818 106.463 5.22314C106.463 6.46281 107.365 6.87603 107.693 7.04132L107.775 6.87603C107.529 6.71074 107.283 6.54545 107.283 6.04959C107.283 5.71901 107.611 5.1405 108.431 5.1405C109.169 5.1405 110.154 5.47107 111.466 5.8843C112.614 6.21488 113.845 6.46281 114.501 6.54545V9.10744L113.271 10.1818V10.2645L114.501 11.3388V14.8926C113.845 15.3058 113.106 15.3884 112.45 15.3884C111.22 15.3884 110.154 15.0579 109.251 14.0661L112.614 12.4132V6.6281L108.513 8.44628C108.923 7.3719 109.826 6.6281 110.646 6.04959L110.564 5.8843C108.103 6.54545 105.889 8.77686 105.889 11.5868C105.889 14.8926 108.595 17.3719 111.63 17.3719C114.911 17.3719 117.043 14.7273 117.043 12H116.879C116.387 13.0744 115.649 14.0661 114.747 14.562V11.1736L116.059 10.0992V10.0165L114.829 8.94215V6.46281C116.059 6.46281 117.29 5.63636 117.29 4.06612ZM110.154 13.157L109.169 13.6529C108.595 12.9091 108.267 11.9174 108.267 10.5124C108.267 9.93388 108.349 9.27273 108.513 8.77686L110.236 8.03306L110.154 13.157ZM120.16 3.23967H120.078L118.438 4.64463V4.72727L119.832 6.29752H119.996L121.637 4.89256V4.80992L120.16 3.23967ZM122.621 15.4711L121.965 15.8843L121.144 15.0579V9.35537L121.965 8.77686L121.801 8.61157L121.227 9.10744L119.75 7.3719L117.372 9.02479L117.536 9.27273L118.11 8.8595L118.848 9.7686V15.1405L117.782 15.9669L117.864 16.1322L118.438 15.719L120.242 17.3719L122.703 15.719L122.621 15.4711ZM136.318 15.3884L135.744 15.8017L134.842 14.9752V9.35537L135.662 8.69421L135.498 8.52893L134.842 9.10744L132.955 7.3719L130.495 9.10744L128.608 7.3719L126.312 9.10744L124.835 7.3719L122.457 9.02479L122.539 9.27273L123.113 8.8595L123.933 9.7686V15.1405L123.277 15.8017L125.164 17.3719L126.968 15.719L126.23 14.9752V9.35537L126.968 8.8595L128.198 10.0165V14.9752L127.542 15.6364L129.429 17.2066L131.233 15.5537L130.495 14.8099V9.35537L131.151 8.94215L132.463 10.0992V15.0579L131.889 15.6364L133.776 17.3719L136.318 15.6364V15.3884ZM143.454 14.1488L141.404 15.719L139.353 14.0661V13.0744L143.208 10.4298V10.3471L141.24 7.3719L136.974 9.68595V15.3058L139.845 17.3719L143.536 14.3967L143.454 14.1488ZM139.353 12.7438V8.69421L139.517 8.61157L141.322 11.5041L139.353 12.7438ZM150.918 12L149.36 10.7603C150.426 9.85124 150.836 8.61157 150.836 7.78512V7.28926H150.672C150.508 7.70248 150.18 8.1157 149.524 8.1157C148.867 8.1157 148.457 7.78512 148.047 7.28926L144.356 9.35537V12.3306L145.751 13.405C144.356 14.6446 144.11 15.4711 144.11 16.1322C144.11 16.9587 144.52 17.5372 145.177 17.7851L145.259 17.6198C145.095 17.4545 144.93 17.3719 144.93 16.9587C144.93 16.7107 145.259 16.2975 145.915 16.2975C146.735 16.2975 147.227 16.876 147.473 17.124L151 14.9752V12H150.918ZM150.016 9.52066C149.442 10.5124 148.211 11.5041 147.473 12L146.571 11.2562V8.36364C146.899 9.19008 147.801 9.85124 148.703 9.85124C149.278 9.85124 149.606 9.76859 150.016 9.52066ZM148.621 16.1322C148.211 15.2231 147.227 14.562 146.243 14.562C145.997 14.562 145.341 14.562 144.684 14.9752C145.095 14.314 146.161 13.157 147.555 12.3306L148.539 13.157L148.621 16.1322Z"></path>
</svg>
