<svg xmlns="http://www.w3.org/2000/svg" fill="none" viewBox="0 0 124 24" height="24" width="124">
<path fill="#4D6E89" d="M6.59497 10.7989C7.82155 10.7989 8.63016 10.2694 8.63016 9.46075C8.63016 8.54109 7.93316 8.03884 6.70658 8.03884H3.55698V10.7989H6.59554H6.59497ZM0.601562 5.1119H6.73505C9.60562 5.1119 11.4455 6.78436 11.4455 9.37704C11.4455 10.7431 10.7206 12.165 9.60619 12.9731L9.46611 13.0568L11.8356 18.995H8.68654L6.53973 13.7538H3.58431V18.995H0.601562V5.1119ZM13.8708 5.1119H24.0467V7.95513H16.8535V10.1019H20.7565V12.9725H16.8535V16.1227H24.213V18.9938H13.8708V5.1119ZM34.1139 13.0289L32.6647 9.60026L31.2149 13.0283H34.1139V13.0289ZM25.6121 18.9944L31.4939 5.11133H33.8913L39.6888 18.9944H36.6223L35.2841 15.9H30.0156L28.6775 18.9944H25.6116H25.6121ZM41.3066 5.1119H44.2614V16.1512H51.6209V18.9944H41.3066V5.1119Z" clip-rule="evenodd" fill-rule="evenodd"></path>
<path fill="#4D6E89" d="M56.6273 14.2552C57.9934 15.8997 58.8293 16.3735 60.2233 16.3735C61.6446 16.3735 62.6486 15.7323 62.6486 14.7848C62.6486 14.0046 62.0353 13.5861 60.2512 13.196C57.8254 12.638 56.8226 12.1084 56.1256 11.0213C55.7572 10.4271 55.5638 9.74105 55.5675 9.04192C55.5675 6.67303 57.4632 5 60.1396 5C62.2021 5 64.2652 6.03126 65.4918 7.70486L63.4008 9.48779C62.0074 8.2054 61.3383 7.87057 60.1117 7.87057C59.0525 7.87057 58.3834 8.28911 58.3834 8.93031C58.3834 9.5436 58.8014 9.84996 60.0001 10.129C60.307 10.2121 60.725 10.3237 61.2546 10.4912L63.0107 11.0492C64.46 11.4945 65.5191 13.028 65.5191 14.7005C65.5191 17.2658 63.3456 19.1336 60.3907 19.1336C58.8578 19.1336 57.1848 18.5761 56.0698 17.6559C55.707 17.3495 55.2612 16.9042 54.6758 16.2898C54.481 16.0951 54.4531 16.0677 54.2578 15.8439L56.6267 14.2552H56.6273Z" clip-rule="evenodd" fill-rule="evenodd"></path>
<path fill="#4D6E89" d="M67.6377 18.9944H70.5646V5.11133H67.6377V18.9944ZM72.7803 5.1119H75.5125L79.0249 12.583L82.5936 5.1119H85.4647L85.4368 18.9944H82.5378V11.9697L78.997 18.9944L75.68 12.0255V18.9944H72.7803V5.1119ZM93.7718 10.8263H93.9944C95.1937 10.8263 95.9186 10.2967 95.9186 9.40437C95.9186 8.54052 95.2216 8.01094 94.0508 8.01094H90.5943V10.8263H93.7718ZM87.6668 5.11133H94.134C96.8661 5.11133 98.7618 6.86806 98.7618 9.40494C98.7618 11.9412 96.7824 13.7538 94.0508 13.7538H90.6216V18.9944H87.6668V5.11133ZM100.798 5.1119H103.754V16.1512H111.113V18.9944H100.798V5.1119ZM113.259 5.1119H123.434V7.95513H116.242V10.1019H120.145V12.9725H116.242V16.1227H123.602V18.9938H113.259V5.1119Z" clip-rule="evenodd" fill-rule="evenodd"></path>
</svg>
