<svg xmlns="http://www.w3.org/2000/svg" fill="none" viewBox="0 0 81 24" height="24" width="81">
<path fill="#4D6E89" d="M14.23 1.51953V1.73769H16.102L11.3405 17.2116L5.70105 1.73769H7.55751V1.51953H0V1.73769H1.98825L9.7947 23.1266L16.5059 1.73769H18.3083V1.51953H14.23Z"></path>
<path fill="#4D6E89" d="M47.8445 1.14613V8.57972H47.6734C47.3549 7.11609 46.9045 5.69183 46.1202 4.39965C45.1878 2.88979 43.7044 1.19297 41.77 1.19297C37.3271 1.19297 36.9233 9.17133 36.9233 12.2146C36.9233 14.9395 37.1408 17.7493 38.1272 20.3023C38.8186 22.0918 39.8206 22.9722 41.6771 22.9722C43.1529 22.9722 44.7216 22.2249 45.5064 20.9404C45.7081 20.6053 45.724 20.2321 45.724 19.85V14.106H43.7815V13.8806H50.8889V14.106H49.2269V22.6992H49.0792C48.6598 21.9988 47.9997 21.5392 47.1531 21.5392C46.5396 21.5392 45.9411 21.7574 45.4055 22.0536L44.9235 22.3179C43.8364 22.801 42.7958 23.1507 41.5915 23.1507C36.0764 23.1507 33.1406 17.2584 33.1406 12.3708C33.1406 8.79775 34.4997 4.97536 37.3893 2.74158C38.6852 1.7397 40.2545 1 41.9239 1C42.5768 1 43.2212 1.20238 43.8269 1.44365L44.2701 1.61485C44.7745 1.80146 45.3264 1.98109 45.8698 1.98109C46.546 1.98109 47.1517 1.53695 47.6721 1.14796H47.8441L47.8445 1.14613Z"></path>
<path fill="#4D6E89" d="M49.528 1.52075H57.1095V1.73879H55.098V18.2325C55.098 20.8162 57.7539 22.3889 60.0767 22.3889C62.5773 22.3889 64.6825 20.6448 64.6825 18.0848V1.73903H62.3057V1.52088H80.1344V9.17233H79.9867C79.7615 7.14828 79.3735 5.06981 77.983 3.49002C76.5768 1.89397 74.6657 1.73891 72.701 1.73891H70.5801V11.5774C71.0154 11.6241 71.4581 11.6554 71.9005 11.6554C74.5648 11.6554 75.2562 9.81824 75.373 7.54534H75.5672V16.1775H75.373C75.0388 14.1151 74.1298 11.9038 71.7139 11.9038C71.3334 11.9038 70.9605 11.9276 70.5801 11.9588V22.4821H73.7568C75.4036 22.4821 77.043 21.7663 78.2083 20.6145C79.2021 19.6329 79.8931 18.3572 80.134 16.9797C80.2661 16.2091 80.3284 15.423 80.3673 14.6443H80.537V22.7003H65.2429V22.4821H67.0214V1.73781H64.9993V18.1459C64.9993 21.5396 61.7841 23.0422 58.7702 23.0422C55.3601 23.0422 51.6006 21.3844 51.6006 17.4769V1.73769H49.5273V1.51953L49.528 1.52075Z"></path>
<path fill="#4D6E89" d="M28.7638 12.1902C28.7638 9.10018 27.6605 1.3791 23.4895 1.3791C19.303 1.3791 18.2153 9.09211 18.2153 12.1902C18.2153 15.2884 19.3108 23.0094 23.4895 23.0094C27.6605 23.0094 28.7637 15.2797 28.7637 12.1898L28.7638 12.1902ZM23.4749 23.3285C20.966 23.3285 18.5658 21.9191 17.0123 19.997C15.2413 17.8094 14.3789 14.9844 14.3789 12.1897C14.3789 9.50433 15.1713 6.8033 16.8101 4.66282C18.4258 2.56135 20.8567 1.05859 23.5609 1.05859C26.0462 1.05859 28.4313 2.48334 29.9612 4.38242C31.7246 6.56961 32.6022 9.40259 32.6022 12.1974C32.6022 14.8748 31.8021 17.5758 30.1708 19.7164C28.5698 21.8025 26.1536 23.3287 23.475 23.3287"></path>
</svg>
