<svg xmlns="http://www.w3.org/2000/svg" fill="none" viewBox="0 0 153 24" height="24" width="153">
<path fill="#4D6E89" d="M9.06299 8.08082V16.2167C10.1761 15.623 10.9556 14.5894 11.334 13.4239L11.4231 13.4681C11.178 16.3707 9.1742 19.273 6.05694 19.273C2.9173 19.273 0.601562 16.9643 0.601562 13.2699C0.601562 10.4996 2.42737 8.7622 4.76548 7.20092C4.42385 7.11242 4.07202 7.06807 3.71883 7.069C2.11545 7.069 1.18033 8.14646 1.18033 9.24601H1.04674C1.02437 9.092 1.02437 8.93831 1.02437 8.78429C1.02437 6.82725 2.07103 4.45236 4.60952 4.45236C6.23495 4.45236 7.48198 5.92558 9.37458 5.92558C10.1317 5.92558 11.0668 5.57368 11.4452 4.76006H11.512C11.4899 6.18974 11.0448 7.66297 9.06299 8.08082ZM10.2653 16.4146C9.15183 17.5798 7.94954 18.5695 6.39091 18.5695C3.4964 18.5695 1.26983 16.3265 1.26983 13.072C1.26983 11.1592 2.07136 10.1259 2.96205 8.91621H2.87288C2.31616 9.46599 0.846693 10.8512 0.846693 13.204C0.846693 16.8103 3.14006 19.0312 6.14611 19.0312C8.23909 19.0312 9.66413 17.6022 10.31 16.4367L10.2653 16.4146ZM11.1556 5.75012C10.7773 6.45359 9.97573 7.35493 8.3503 7.35493C6.72488 7.35493 5.23304 6.25538 3.91921 6.25538C2.71659 6.25538 1.89302 7.04723 1.5811 7.64087L1.60347 7.68506C2.02661 7.2672 2.67217 6.84935 3.71883 6.84935C5.45547 6.84935 6.56891 7.90504 8.32793 7.90504C10.1985 7.90504 11.0444 6.69533 11.2004 5.77221L11.1556 5.75012ZM4.96553 7.2672C3.83004 8.43272 2.78338 9.70806 2.78338 12.1928C2.78338 13.5559 3.25094 14.9631 4.2976 15.8427L4.94316 15.5126V9.62L4.34202 9.92771L4.2308 9.70774L7.34807 8.03631C6.50212 7.86085 5.74502 7.48718 4.96553 7.2672ZM8.81786 8.12469C8.6619 8.14646 8.50626 8.14646 8.32793 8.14646C8.01633 8.14646 7.72678 8.12469 7.43723 8.0584V14.479L4.52035 16.0409C5.1215 16.4805 5.85623 16.7444 6.79134 16.7444C7.54845 16.7444 8.21639 16.5904 8.81753 16.3265V8.12469H8.81786ZM5.61143 9.24634L5.18829 9.48808V15.3813L5.61143 15.1613V9.24634ZM18.4148 10.0817V17.6899C18.4148 19.8006 16.5222 21.2303 14.4068 21.6479L14.3624 21.5598C15.4091 21.0539 16.0102 20.0206 16.0102 18.9211V11.049L14.8079 9.9719L14.3404 10.4775V16.6124L15.0083 17.2061V17.2503L13.2049 19.1852L11.1343 17.3162V17.2282L11.9358 16.3925V6.67356L14.2959 4.18916L14.3404 4.21093V10.1038L16.2777 8.03696L18.3039 9.84031L18.6823 9.44422L18.8606 9.59856L18.4148 10.0817ZM12.1803 17.2721V17.2282L12.6478 16.7661V6.29957L12.1803 6.78371V16.5465L11.4676 17.2503V17.2941L13.2042 18.8333L13.5158 18.4814L12.1803 17.2721ZM16.7226 10.6971L15.2751 9.46599L14.9635 9.79579L16.255 10.9395V18.8554C16.255 19.3831 16.1438 19.9326 15.9434 20.2406L15.9658 20.2627C16.5225 19.8666 16.7229 19.273 16.7229 18.5035V10.6971H16.7226ZM21.9552 14.5014V15.6227L24.115 17.2938L25.362 15.9746L25.5403 16.1504L22.6458 19.2067L19.7066 16.876L19.2614 17.3377L19.083 17.1619L19.5954 16.6342V11.0711L23.8037 8.03663L26.0082 11.5549L21.9552 14.5014ZM20.3074 16.4367V10.8512L19.8398 11.1813V16.6566L22.6011 18.8775L22.9574 18.5039L20.3074 16.4367ZM21.9999 9.66387L21.9552 9.68597V14.1937L23.937 12.7643L21.9999 9.66387ZM22.5787 9.22424L22.1779 9.50985L24.1377 12.6103L24.5384 12.3244L22.5787 9.22424ZM40.5222 19.1849L37.427 16.5462L35.0668 19.1849L31.8604 16.4581V12.1486H31.2369C30.6802 12.1486 30.3909 12.5005 30.257 12.918H30.1902C30.1192 12.645 30.0818 12.3645 30.079 12.0826C30.079 11.5108 30.235 10.0158 31.8604 10.0158V6.23361C31.8604 5.50805 30.9921 5.22211 30.9921 4.25448C30.9921 3.00155 32.1944 1.77008 34.3989 1L34.4881 1.06596C33.6865 1.52801 33.2634 1.96763 33.2634 2.91317C33.2634 4.36463 34.6884 3.99063 34.6884 6.27747V7.15705L37.2937 4.45236L40.0326 7.11286L42.6155 4.45236L45.1093 6.87112V15.007L40.5222 19.1849ZM32.5731 16.1065V11.4672H31.3261C30.6802 11.4672 30.3909 11.8848 30.3462 12.2587L30.3682 12.2808C30.591 12.0391 30.8138 11.9072 31.3257 11.9072H32.1049V16.3489L35.0441 18.8557L35.3781 18.4597L32.5731 16.1065ZM32.5731 6.01363C32.5731 5.11228 31.7716 4.80425 31.7716 4.23271C31.7716 3.44086 32.0832 2.78158 32.5731 2.16584L32.5287 2.14407C31.8607 2.64998 31.2372 3.4636 31.2372 4.2548C31.2372 5.04665 32.1055 5.42032 32.1055 6.12411V10.0161H32.5731V6.01363ZM37.2714 8.21274L35.5791 6.58551L34.6884 7.48685V15.2708L36.7146 16.964L37.2714 16.3483V8.21274ZM37.9837 16.0627V7.90504L36.0911 6.05782L35.7348 6.40972L37.5162 8.10259V16.3044L40.5222 18.8772L40.8786 18.5471L37.9837 16.0627ZM42.3036 7.92681L40.9009 6.60728L40.0994 7.42089V15.2491L42.2816 17.1398L42.3036 17.118V7.92681ZM43.016 7.6191L41.3905 6.05782L41.0566 6.40972L42.5484 7.81698V17.0082L43.016 16.5683V7.6191ZM52.4773 19.1849L50.362 17.2938L48.4694 19.1849L46.1536 17.1619L45.8417 17.4917L45.6637 17.3159L46.0645 16.8981V11.0055L50.2508 8.01486L52.6557 9.86208L53.0788 9.42212L53.2571 9.59824L52.7672 10.1038V16.1949L53.9471 17.2721L54.3258 16.8763L54.5038 17.0303L52.4773 19.1849ZM46.7771 16.7444V10.8073L46.3096 11.1371V16.9643L48.4473 18.8554L48.8037 18.5035L46.7771 16.7444ZM50.362 10.9613L48.5362 9.55404L48.4694 9.59824V15.9967L49.9836 17.2938L50.362 16.9202V10.9613ZM51.0746 16.9423V10.6315L49.182 9.11409L48.7369 9.4218L50.6071 10.8733V17.1619L52.4776 18.833L52.8116 18.4811L51.0746 16.9423ZM58.957 12.0167H61.2503V16.7223L57.7099 19.1849C57.2424 18.6572 56.5741 18.2836 55.7505 18.2836C55.0826 18.2836 54.5479 18.5035 53.8356 19.0972L53.7244 19.053L56.7528 14.6993H54.8822V10.6094L58.601 8.05873C59.0461 8.41062 59.3801 8.60818 59.9592 8.60818C60.4047 8.60818 61.0503 8.52012 61.5402 8.12469L61.6294 8.16855L58.957 12.0167ZM56.4632 17.6457C55.8173 17.6457 55.3054 17.8657 54.8599 18.1734V18.2176C55.2162 18.0636 55.5725 18.0197 55.9065 18.0197C56.4185 18.0197 57.2203 18.2618 57.7547 18.8775L58.267 18.5039C57.8435 18.0197 57.3316 17.6457 56.4632 17.6457ZM58.8454 13.9516H57.5984L54.9931 17.6681L55.0155 17.712C55.661 17.2503 56.2846 16.9426 57.0417 16.9426C57.7096 16.9426 58.3999 17.2503 58.8231 17.778L58.8454 17.7562V13.9516ZM55.5946 13.9516V10.4119L55.127 10.7417V14.4358H56.9305L57.2868 13.9519H55.5946V13.9516ZM60.2484 9.64178C59.7809 9.9719 59.5137 10.1477 58.7342 10.1477C58.2887 10.1477 57.7544 9.94981 57.3316 9.50985L57.2871 9.53195V12.7422H58.1331L60.2708 9.66355L60.2484 9.64178ZM59.1797 9.44389C58.779 9.44389 58.267 9.24634 57.9327 8.80639L57.376 9.18005C57.7991 9.68597 58.1999 9.90562 58.8231 9.90562C59.2238 9.90562 59.8029 9.79547 60.4041 9.28955L60.4261 9.22392C60.0481 9.37826 59.5805 9.44389 59.1797 9.44389ZM59.5581 13.2264H58.1107L57.7767 13.6881H59.0906V17.9537L59.5581 17.6239V13.2264ZM68.9323 10.0817V17.6899C68.9323 19.8006 67.0397 21.2303 64.9243 21.6479L64.8799 21.5598C65.9266 21.0539 66.5277 20.0206 66.5277 18.9211V11.049L65.3254 9.9719L64.8579 10.4775V16.6124L65.5258 17.2061V17.2503L63.7224 19.1852L61.6518 17.3162V17.2282L62.4533 16.3925V6.67356L64.8134 4.18916L64.8579 4.21093V10.1038L66.7952 8.03696L68.8214 9.84031L69.1998 9.44422L69.3781 9.59856L68.9323 10.0817ZM62.6978 17.2721V17.2282L63.1653 16.7661V6.29957L62.6978 6.78339V16.5462L61.9851 17.25V17.2938L63.7217 18.833L64.0333 18.4811L62.6978 17.2721ZM67.2401 10.6971L65.7926 9.46599L65.4811 9.79579L66.7725 10.9395V18.8554C66.7725 19.3831 66.6613 19.9326 66.4609 20.2406L66.4833 20.2627C67.04 19.8666 67.2404 19.273 67.2404 18.5035V10.6971H67.2401ZM72.985 19.1849L71.07 17.4478L70.6245 17.9096L70.4462 17.7334L70.9585 17.184V10.8294L70.0234 9.94981L69.667 10.3459L69.4887 10.1698L71.4925 8.01486L73.2739 9.59824L73.7194 9.11442L73.9198 9.26843L73.3631 9.86208V16.283L74.4321 17.2724L74.922 16.7665L75.1 16.9426L72.985 19.1849ZM71.6712 17.0303V10.4775L70.5133 9.42212L70.2017 9.77402L71.2036 10.7196V17.2503L72.985 18.8333L73.319 18.4814L71.6712 17.0303ZM72.3391 7.83908L70.5133 6.19007L72.1835 4.43091L74.0093 6.07992L72.3391 7.83908ZM71.2036 5.83785L70.8696 6.16765L72.3167 7.50895L72.6507 7.13528L71.2036 5.83785ZM82.4003 19.1849L80.4629 17.4478V11.0273L79.2827 9.9719L78.6592 10.6315V16.5683L79.3495 17.2058V17.2938L77.5237 19.1849L75.4527 17.3159V17.25L76.2546 16.4146V10.8733L75.2079 9.92771L74.7848 10.3894L74.6068 10.2136L76.633 8.03663L78.6592 9.81789V10.2575L80.7745 8.03663L82.756 9.79579L83.2015 9.33407L83.4019 9.50985L82.8675 10.0596V16.3483L83.8694 17.2717L84.3594 16.744L84.5374 16.9198L82.4003 19.1849ZM76.5218 17.2721V17.2282C76.5218 17.2721 76.9673 16.7882 76.9673 16.7882V10.5431L75.6979 9.3997L75.3859 9.72951L76.4994 10.741V16.5458L75.8091 17.2496V17.2935L77.5237 18.8327L77.8797 18.459L76.5218 17.2721ZM81.1753 17.0963V10.6536L79.795 9.42212L79.4387 9.79579L80.7077 10.9171V17.3159L82.3776 18.8551L82.7339 18.4811L81.1753 17.0963ZM88.6792 23.1428C87.9448 22.3513 87.4325 22.0215 86.7422 22.0215C86.0075 22.0215 85.1612 22.3075 84.2929 22.7692L84.2261 22.7035L87.2989 19.1852L85.1168 17.4703L84.6937 17.9102L84.5156 17.7562L85.0052 17.2285V11.0055L89.236 8.01486L91.5961 9.86208L91.9972 9.42212L92.1752 9.59824L91.7077 10.1038V17.6243C91.7077 18.7677 92.3532 18.7238 92.3532 19.581C92.3532 20.5704 90.9058 21.4938 88.6792 23.1428ZM85.7179 17.0521V10.8294L85.2504 11.1595V17.2503L87.4546 19.0094L87.7889 18.6134L85.7179 17.0521ZM87.2766 21.45C86.5418 21.45 85.8736 21.6699 85.2504 22.0875V22.1317C85.6511 21.9777 86.0963 21.7798 86.8534 21.7798C87.5437 21.7798 88.1225 22.1534 88.7016 22.8134L89.1471 22.4615C88.5901 21.824 87.9221 21.45 87.2766 21.45ZM89.9931 19.3389C89.4367 18.987 89.3028 18.6134 89.3028 17.6678V17.2717L85.6064 21.4935L85.6288 21.5153C86.3411 21.0977 86.987 20.79 88.0337 20.79C88.9244 20.79 89.5255 21.1416 90.2158 21.7135C90.639 21.3616 90.9282 21.01 90.9282 20.4602C90.9282 20.0206 90.5495 19.6908 89.9931 19.3389ZM89.3028 10.9613L87.4546 9.53227L87.4098 9.57614V16.3265L88.8352 17.4261L89.3028 16.8984V10.9613ZM90.661 19.0312C90.0819 18.5913 90.0151 18.2176 90.0151 17.2721V10.5876L88.1446 9.09232L87.7217 9.37826L89.5476 10.8073V17.5798C89.5476 18.5253 89.5923 18.7895 90.1935 19.1849C90.7278 19.5368 91.1506 19.9105 91.1506 20.4164C91.1506 20.548 91.1286 20.7679 91.1286 20.7679L91.1506 20.79C91.2621 20.6799 91.3957 20.5041 91.3957 20.2182C91.3961 19.7347 91.1509 19.4049 90.661 19.0312ZM96.0052 19.1849L93.9566 17.6019L93.5335 18.0636L93.3555 17.8875L93.8451 17.3598V9.66387H92.5536L92.5089 9.62L93.2883 8.47626H93.8447V7.00336L96.2052 4.51864L96.2496 4.56283V8.47658H98.031L98.0758 8.52077L97.2963 9.6642H96.2496V16.3268L97.4746 17.2506L97.9422 16.7447L98.1202 16.9205L96.0052 19.1849ZM94.5578 6.62937L94.0902 7.13528V8.47658H94.5578V6.62937ZM94.5578 17.1401V9.66387H94.0902V17.404L95.9828 18.8554L96.3168 18.5035L94.5578 17.1401ZM105.401 10.3017V16.4584L101.638 19.207L98.8102 17.0963L98.4762 17.4699L98.2982 17.2938L98.699 16.8542V10.8294L102.64 8.03663L105.268 10.06L105.691 9.62L105.869 9.79579L105.401 10.3017ZM99.412 16.6345V10.6315L98.9441 10.9613V16.8763L101.616 18.8993L102.039 18.5916L99.412 16.6345ZM102.997 11.0273L101.126 9.57582L101.104 9.59791V16.1504L102.997 17.5577V11.0273ZM103.709 10.6315L101.639 9.04813L101.216 9.35584L103.242 10.895V17.7338L103.709 17.3822V10.6315ZM113.908 19.1849L111.97 17.4478V11.0273L110.79 9.9719L110.166 10.6315V16.5683L110.857 17.2058V17.2938L109.031 19.1849L106.96 17.3159V17.25L107.762 16.4146V10.8733L106.715 9.92771L106.292 10.3894L106.114 10.2136L108.14 8.03663L110.166 9.81789V10.2575L112.282 8.03663L114.264 9.79579L114.709 9.33407L114.909 9.50985L114.375 10.0596V16.3483L115.377 17.2717L115.867 16.744L116.045 16.9198L113.908 19.1849ZM108.029 17.2721V17.2282C108.029 17.2721 108.474 16.7882 108.474 16.7882V10.5431L107.205 9.3997L106.894 9.72951L108.007 10.741V16.5458L107.317 17.2496V17.2935L109.031 18.8327L109.388 18.459L108.029 17.2721ZM112.683 17.0963V10.6536L111.302 9.42212L110.946 9.79579L112.215 10.9171V17.3159L113.885 18.8551L114.241 18.4811L112.683 17.0963ZM127.663 19.1849C127.04 18.5253 126.817 18.3053 126.082 18.1074V22.4173L126.037 22.439L125.147 21.6472L122.564 24L122.519 23.9782V18.0636C121.74 18.2394 120.916 18.6354 120.114 19.4266L120.07 19.4049C120.226 17.7117 121.072 16.4584 122.519 15.9746V11.6869H122.051C121.406 11.6869 121.049 12.0167 120.738 12.6103H120.671C120.604 12.4128 120.559 12.1044 120.559 11.5991C120.559 10.6754 121.25 9.70806 122.385 9.70806H122.519V7.33316L121.606 6.51955L121.16 6.9595L121.004 6.80548L123.253 4.45268L125.346 6.34376V8.34466L125.836 7.81698V5.28807H126.081V7.59701L129.042 4.45236L131.559 6.71743V16.2826L127.663 19.1849ZM122.52 17.25C121.607 17.4257 120.961 17.9755 120.538 18.7011L120.56 18.7453C121.184 18.2176 121.763 17.9758 122.52 17.7997V17.25ZM123.232 10.9395H122.008C121.161 10.9395 120.827 11.4672 120.805 12.083L120.827 12.1047C121.095 11.6648 121.362 11.5111 121.896 11.4454H122.765V23.4291L123.232 22.9892V10.9395ZM123.232 6.98127L122.119 5.97009L121.763 6.34376L122.765 7.22301V9.70774H123.232V6.98127ZM125.838 8.23451L125.348 8.74043V21.4721L125.838 21.912V8.23451ZM128.755 7.72893L127.441 6.54164L126.082 7.99309V15.7329C127.24 15.843 128.042 16.1728 128.732 16.9202L128.755 16.8984V7.72893ZM126.082 17.25V17.8218C126.84 17.9976 127.151 18.2176 127.686 18.833L128.198 18.4372C127.663 17.7776 127.129 17.3822 126.082 17.25ZM129.467 7.37735L127.953 5.99186L127.596 6.36553L128.999 7.64087V17.8657L129.467 17.5138V7.37735ZM139.331 10.3017V16.4584L135.568 19.207L132.74 17.0963L132.405 17.4699L132.227 17.2938L132.628 16.8542V10.8294L136.57 8.03663L139.197 10.06L139.62 9.62L139.798 9.79579L139.331 10.3017ZM133.341 16.6345V10.6315L132.873 10.9613V16.8763L135.545 18.8993L135.969 18.5916L133.341 16.6345ZM136.926 11.0273L135.056 9.57582L135.033 9.59791V16.1504L136.926 17.5577V11.0273ZM137.639 10.6315L135.568 9.04813L135.145 9.35584L137.171 10.895V17.7338L137.639 17.3822V10.6315ZM144.496 12.0167H146.79V16.7223L143.25 19.1849C142.782 18.6572 142.114 18.2836 141.29 18.2836C140.622 18.2836 140.088 18.5035 139.375 19.0972L139.264 19.053L142.292 14.6993H140.422V10.6094L144.14 8.05873C144.586 8.41062 144.92 8.60818 145.499 8.60818C145.944 8.60818 146.589 8.52012 147.08 8.12469L147.169 8.16855L144.496 12.0167ZM142.003 17.6457C141.357 17.6457 140.845 17.8657 140.4 18.1734V18.2176C140.756 18.0636 141.112 18.0197 141.446 18.0197C141.959 18.0197 142.76 18.2618 143.294 18.8775L143.807 18.5039C143.384 18.0197 142.871 17.6457 142.003 17.6457ZM144.386 13.9516H143.139L140.534 17.6681L140.556 17.712C141.201 17.2503 141.825 16.9426 142.582 16.9426C143.25 16.9426 143.94 17.2503 144.363 17.778L144.385 17.7562V13.9516H144.386ZM141.135 13.9516V10.4119L140.667 10.7417V14.4358H142.47L142.827 13.9519H141.135V13.9516ZM145.788 9.64178C145.32 9.9719 145.054 10.1477 144.274 10.1477C143.828 10.1477 143.294 9.94981 142.871 9.50985L142.826 9.53195V12.7422H143.672L145.81 9.66355L145.788 9.64178ZM144.719 9.44389C144.318 9.44389 143.807 9.24634 143.473 8.80639L142.916 9.18005C143.339 9.68597 143.74 9.90562 144.363 9.90562C144.764 9.90562 145.343 9.79547 145.944 9.28955L145.966 9.22392C145.588 9.37826 145.12 9.44389 144.719 9.44389ZM145.098 13.2264H143.651L143.317 13.6881H144.63V17.9537L145.098 17.6239V13.2264ZM150.487 19.1849L148.438 17.6019L148.015 18.0636L147.837 17.8875L148.326 17.3598V9.66387H147.035L146.991 9.62L147.77 8.47626H148.326V7.00336L150.687 4.51864L150.731 4.56283V8.47658H152.512L152.557 8.52077L151.778 9.6642H150.731V16.3268L151.956 17.2506L152.424 16.7447L152.602 16.9205L150.487 19.1849ZM149.039 6.62937L148.572 7.13528V8.47658H149.039V6.62937ZM149.039 17.1401V9.66387H148.572V17.404L150.464 18.8554L150.798 18.5035L149.039 17.1401Z"></path>
</svg>
