<svg xmlns="http://www.w3.org/2000/svg" fill="none" viewBox="0 0 151 24" height="24" width="151">
<path fill="white" d="M24.8827 15.8601C24.8827 14.8784 24.8827 13.9368 24.8827 12.9602C26.5055 12.9602 28.1132 12.9602 29.7259 12.9602C29.7259 12.4994 29.7259 12.0686 29.7259 11.6079C28.1032 11.6079 26.4955 11.6079 24.8827 11.6079C24.8827 10.5761 24.8827 9.57942 24.8827 8.55768C26.791 8.55768 28.6792 8.55768 30.5774 8.55768C30.5774 8.08688 30.5774 7.64113 30.5774 7.19537C28.1983 7.19537 25.8393 7.19537 23.4854 7.19537C23.4854 10.5511 23.4854 13.8867 23.4854 17.2174C25.8644 17.2174 28.2234 17.2174 30.5774 17.2174C30.5774 16.7566 30.5774 16.3209 30.5774 15.8651C28.6792 15.8601 26.796 15.8601 24.8827 15.8601ZM81.8043 11.5377C80.432 11.5377 79.0747 11.5377 77.6973 11.5377C77.6973 10.0452 77.6973 8.58773 77.6973 7.11523C77.2265 7.11523 76.7808 7.11523 76.31 7.11523C76.31 8.59775 76.31 10.0652 76.31 11.5678C74.9276 11.5678 73.5703 11.5678 72.208 11.5678C72.208 12.0336 72.208 12.4643 72.208 12.9301C72.3232 12.9301 72.4334 12.9301 72.5386 12.9301C73.7006 12.9301 74.8675 12.9351 76.0295 12.9251C76.2499 12.9251 76.32 12.9852 76.32 13.2106C76.31 14.4827 76.315 15.7549 76.315 17.0271C76.315 17.1222 76.325 17.2174 76.33 17.3175C76.7958 17.3175 77.2316 17.3175 77.7074 17.3175C77.7074 15.8501 77.7074 14.3926 77.7074 12.9101C79.0947 12.9101 80.442 12.9101 81.8043 12.9101C81.8043 12.4443 81.8043 12.0085 81.8043 11.5377ZM56.0406 7.18535C56.0406 10.541 56.0406 13.8817 56.0406 17.2174C58.3145 17.2174 60.5633 17.2174 62.8221 17.2174C62.8221 16.7616 62.8221 16.3209 62.8221 15.8501C61.019 15.8501 59.231 15.8501 57.4129 15.8501C57.4129 12.9451 57.4129 10.0702 57.4129 7.18535C56.9471 7.18535 56.5014 7.18535 56.0406 7.18535ZM46.8901 15.845C45.082 15.845 43.2839 15.845 41.4609 15.845C41.4609 12.9351 41.4609 10.0652 41.4609 7.19036C40.9901 7.19036 40.5443 7.19036 40.1036 7.19036C40.1036 10.5461 40.1036 13.8817 40.1036 17.2174C42.3724 17.2174 44.6262 17.2174 46.8901 17.2174C46.8901 16.7666 46.8901 16.3259 46.8901 15.845Z"></path>
<path fill="#4D6E89" d="M0.601562 7.16015C0.982208 7.16516 1.36285 7.1902 1.73849 7.16015C2.01897 7.14012 2.11914 7.2503 2.19927 7.50574C2.91048 9.78461 3.63671 12.0585 4.36295 14.3323C4.39801 14.4375 4.43807 14.5477 4.49317 14.708C4.57831 14.4625 4.64843 14.2722 4.71354 14.0769C5.44478 11.8681 6.17101 9.6644 6.89224 7.45565C6.96737 7.23027 7.06753 7.13511 7.30794 7.16015C7.51329 7.18519 7.72365 7.18019 7.929 7.16015C8.13435 7.14012 8.20446 7.23027 8.26457 7.41058C9.02586 9.73953 9.80218 12.0635 10.5685 14.3874C10.5985 14.4726 10.6286 14.5527 10.6837 14.708C10.8139 14.3123 10.9241 13.9767 11.0293 13.6411C11.6904 11.5726 12.3515 9.50413 13.0026 7.43562C13.0677 7.23027 13.1529 7.14513 13.3782 7.16015C13.7639 7.18019 14.1546 7.16516 14.5803 7.16516C14.405 7.7161 14.2397 8.24199 14.0694 8.77289C13.1929 11.4975 12.3114 14.2221 11.445 16.9518C11.3748 17.1721 11.2797 17.2573 11.0543 17.2373C10.8289 17.2172 10.6035 17.2122 10.3782 17.2373C10.1277 17.2623 10.0426 17.1571 9.97247 16.9317C9.2262 14.6479 8.46491 12.364 7.70862 10.0801C7.68358 9.99496 7.64852 9.91483 7.59343 9.76958C7.53833 9.92985 7.49827 10.03 7.46321 10.1352C6.71193 12.4091 5.96066 14.6829 5.21439 16.9618C5.14427 17.1721 5.05913 17.2523 4.83875 17.2322C4.57831 17.2122 4.31286 17.2172 4.05242 17.2322C3.88714 17.2423 3.82203 17.1822 3.77194 17.0219C3.11082 14.9684 2.4497 12.9149 1.78858 10.8564C1.41795 9.70948 1.04732 8.55752 0.671681 7.41058C0.656656 7.36049 0.626605 7.31542 0.601562 7.27034C0.601562 7.23027 0.601562 7.19521 0.601562 7.16015Z"></path>
<path fill="#4D6E89" d="M96.203 7C96.4384 7.05509 96.6738 7.10017 96.9042 7.16528C98.2164 7.51087 99.2332 8.26715 100.009 9.40408C99.6338 9.66452 99.2682 9.92496 98.8775 10.1954C98.7573 10.0452 98.6421 9.89992 98.527 9.75968C97.5603 8.59771 95.9526 8.11189 94.5151 8.55263C93.0276 9.00841 91.9608 10.2956 91.8055 11.8082C91.6302 13.5161 92.5869 15.1038 94.1846 15.7549C95.7522 16.3959 97.5303 15.9151 98.5921 14.5779C98.7423 14.3875 98.8375 14.1922 98.8174 13.9368C98.7974 13.6513 98.8124 13.3658 98.8124 13.0453C97.6605 13.0453 96.5386 13.0453 95.3966 13.0453C95.3966 12.6045 95.3966 12.1938 95.3966 11.7631C96.9743 11.7631 98.547 11.7631 100.14 11.7631C100.14 13.5762 100.14 15.3842 100.14 17.2173C99.729 17.2173 99.3133 17.2173 98.8625 17.2173C98.8625 16.9118 98.8625 16.5913 98.8625 16.2257C98.7624 16.2908 98.7022 16.3208 98.6522 16.3659C97.996 16.8918 97.2598 17.2223 96.4334 17.3576C96.3933 17.3626 96.3533 17.3926 96.3132 17.4077C95.8424 17.4077 95.3766 17.4077 94.9058 17.4077C94.3599 17.2324 93.7889 17.1122 93.278 16.8667C91.2746 15.9001 90.0976 13.7565 90.4382 11.4876C90.7938 9.13863 92.5618 7.39066 94.8457 7.0601C94.9058 7.05008 94.9609 7.02504 95.016 7.00501C95.4067 7 95.8023 7 96.203 7Z"></path>
<path fill="#4D6E89" d="M150.909 13.0659C150.859 13.2812 150.804 13.4966 150.754 13.712C150.258 15.8356 148.64 17.1779 146.467 17.2279C145.094 17.258 143.722 17.2329 142.355 17.2329C142.32 17.2329 142.284 17.2229 142.234 17.2179C142.234 13.8722 142.234 10.5316 142.234 7.16587C142.44 7.16587 142.63 7.16587 142.815 7.16587C144.113 7.17588 145.415 7.13081 146.712 7.21094C148.856 7.34617 150.393 8.77359 150.799 10.8872C150.829 11.0525 150.874 11.2177 150.909 11.383C150.909 11.944 150.909 12.5049 150.909 13.0659ZM143.622 15.8306C144.653 15.8306 145.655 15.8807 146.652 15.8155C147.824 15.7404 148.675 15.1093 149.171 14.0375C149.552 13.2111 149.632 12.3346 149.487 11.4431C149.181 9.56494 147.989 8.55823 146.096 8.55823C145.375 8.55823 144.653 8.55823 143.927 8.55823C143.832 8.55823 143.732 8.55823 143.622 8.55823C143.622 11.0074 143.622 13.4215 143.622 15.8306Z"></path>
<path fill="#4D6E89" d="M112.935 7C113.281 7.09015 113.631 7.15526 113.972 7.26545C116.291 8.02674 117.723 10.2155 117.538 12.7047C117.368 14.9986 115.54 16.9519 113.196 17.3476C113.146 17.3576 113.096 17.3826 113.046 17.3976C112.575 17.3976 112.109 17.3976 111.638 17.3976C111.167 17.2574 110.676 17.1572 110.226 16.9669C108.067 16.0353 106.835 13.8116 107.15 11.4776C107.456 9.20374 109.294 7.37564 111.598 7.05008C111.648 7.04508 111.693 7.01503 111.743 7C112.144 7 112.54 7 112.935 7ZM116.156 12.2138C116.161 10.1253 114.428 8.38735 112.334 8.38235C110.246 8.37734 108.503 10.1153 108.498 12.2038C108.498 14.2924 110.226 16.0253 112.324 16.0353C114.413 16.0453 116.151 14.3074 116.156 12.2138Z"></path>
<path fill="#4D6E89" d="M128.86 17.3976C128.284 17.2073 127.678 17.0771 127.137 16.8117C125.164 15.845 124.052 13.6413 124.377 11.4375C124.693 9.28888 126.386 7.51087 128.509 7.10518C128.665 7.07513 128.82 7.03506 128.975 7C129.371 7 129.772 7 130.167 7C130.373 7.05008 130.578 7.09516 130.788 7.14525C133.207 7.73124 134.865 9.90994 134.78 12.3791C134.695 14.8684 132.892 16.9218 130.423 17.3426C130.373 17.3526 130.323 17.3776 130.277 17.3926C129.802 17.3976 129.331 17.3976 128.86 17.3976ZM133.378 12.2239C133.398 10.1453 131.68 8.4124 129.566 8.38235C127.508 8.35229 125.735 10.1003 125.72 12.1638C125.705 14.2673 127.428 16.0153 129.536 16.0353C131.625 16.0504 133.363 14.3274 133.378 12.2239Z"></path>
<path fill="#4D6E89" d="M24.8845 15.8611C26.7978 15.8611 28.681 15.8611 30.5842 15.8611C30.5842 16.3219 30.5842 16.7576 30.5842 17.2134C28.2252 17.2134 25.8662 17.2134 23.4922 17.2134C23.4922 13.8828 23.4922 10.5471 23.4922 7.19141C25.8512 7.19141 28.2052 7.19141 30.5842 7.19141C30.5842 7.63716 30.5842 8.08292 30.5842 8.55372C28.681 8.55372 26.7928 8.55372 24.8896 8.55372C24.8896 9.58046 24.8896 10.5772 24.8896 11.6039C26.5023 11.6039 28.11 11.6039 29.7328 11.6039C29.7328 12.0647 29.7328 12.4954 29.7328 12.9562C28.12 12.9562 26.5123 12.9562 24.8896 12.9562C24.8845 13.9379 24.8845 14.8795 24.8845 15.8611Z"></path>
<path fill="#4D6E89" d="M81.8043 11.5386C81.8043 12.0094 81.8043 12.4451 81.8043 12.9159C80.442 12.9159 79.0947 12.9159 77.7073 12.9159C77.7073 14.3984 77.7073 15.8559 77.7073 17.3234C77.2315 17.3234 76.7958 17.3234 76.33 17.3234C76.325 17.2232 76.315 17.1281 76.315 17.0329C76.315 15.7608 76.31 14.4886 76.32 13.2164C76.32 12.9911 76.2549 12.9259 76.0295 12.931C74.8675 12.941 73.7005 12.936 72.5386 12.936C72.4334 12.936 72.3282 12.936 72.208 12.936C72.208 12.4702 72.208 12.0394 72.208 11.5736C73.5703 11.5736 74.9226 11.5736 76.31 11.5736C76.31 10.0711 76.31 8.60361 76.31 7.12109C76.7858 7.12109 77.2315 7.12109 77.6973 7.12109C77.6973 8.58858 77.6973 10.0511 77.6973 11.5436C79.0797 11.5386 80.432 11.5386 81.8043 11.5386Z"></path>
<path fill="#4D6E89" d="M56.0391 7.18555C56.4948 7.18555 56.9406 7.18555 57.4164 7.18555C57.4164 10.0704 57.4164 12.9453 57.4164 15.8503C59.2345 15.8503 61.0225 15.8503 62.8256 15.8503C62.8256 16.321 62.8256 16.7618 62.8256 17.2176C60.5667 17.2176 58.3129 17.2176 56.0441 17.2176C56.0391 13.8819 56.0391 10.5412 56.0391 7.18555Z"></path>
<path fill="#4D6E89" d="M46.8881 15.8461C46.8881 16.3269 46.8881 16.7677 46.8881 17.2184C44.6242 17.2184 42.3704 17.2184 40.1016 17.2184C40.1016 13.8828 40.1016 10.5471 40.1016 7.19141C40.5423 7.19141 40.9881 7.19141 41.4589 7.19141C41.4589 10.0663 41.4589 12.9362 41.4589 15.8461C43.282 15.8461 45.08 15.8461 46.8881 15.8461Z"></path>
</svg>
