<svg xmlns="http://www.w3.org/2000/svg" fill="none" viewBox="0 0 45 24" height="24" width="45">
<g clip-path="url(#clip0)">
<path fill="#4D6E89" d="M7.83324 0.9688V0.433903H14.4794V0.9688C12.6821 1.13576 12.6145 1.13576 13.2927 4.74573L15.463 16.1775L18.0737 3.8769C18.6163 1.37006 18.4131 1.10244 16.7176 1.00213L16.175 0.96812V0.433903H20.8873V0.9688C19.4632 1.10244 19.4632 1.43671 18.8864 4.14418L14.6154 23.9993H14.2083L10.5799 6.21678L6.74831 23.9993H6.34124L2.00083 3.1747C1.62757 1.33639 1.55996 1.06911 0 0.9688V0.433903H6.44301V0.9688C4.8151 1.13576 4.74748 1.30307 5.42569 4.74573L7.62971 16.0775L10.139 4.27782H10.1735C9.52877 1.16909 9.32524 1.06911 7.83324 0.9688ZM23.1275 21.7264C22.5511 21.7264 21.9067 22.9628 21.7031 23.4644H21.2284V15.8432H21.7031C23.1613 20.0214 25.4333 23.3315 27.3323 23.3315C28.4511 23.3315 29.1634 22.3287 29.1634 20.8243C29.1634 15.309 21.3302 11.7324 21.3302 4.91371C21.3302 2.13925 23.2965 0 25.4333 0C27.3651 0 28.4173 1.5377 29.0617 1.5377C29.4004 1.5377 29.6381 1.30375 30.0448 0.300944H30.4181V7.11927H29.9431C29.0286 3.80991 27.1626 0.500553 25.3653 0.500553C24.2462 0.500553 23.4335 1.53702 23.4335 3.00774C23.4335 8.32271 31.2667 11.6984 31.2667 18.752C31.2667 21.6938 29.4698 23.8664 27.401 23.8664C25.0614 23.8657 23.6698 21.7264 23.1275 21.7264ZM32.2157 20.9572C32.2157 19.5202 33.0975 18.0828 34.386 18.0828C34.6713 18.0708 34.9544 18.1376 35.2033 18.2758C35.4522 18.414 35.657 18.618 35.7945 18.8648C35.932 19.1116 35.9968 19.3913 35.9815 19.6725C35.9663 19.9537 35.8716 20.2251 35.7082 20.456C35.1659 21.2918 33.7419 21.3922 33.7419 22.0607C33.7419 23.0632 34.5895 23.3308 35.3015 23.3308C37.3713 23.3308 37.2333 22.0607 37.2333 17.7485V2.47284C37.2333 1.26974 36.9622 0.9688 35.6396 0.9688H35.1307V0.433903H41.9808V0.9688H41.404C40.692 0.9688 40.4209 1.26974 40.4209 2.50616V17.4486C40.4209 21.6605 37.3689 23.8667 35.5378 23.8667C33.1651 23.8657 32.2157 22.395 32.2157 20.9572ZM41.2698 21.9267C41.2608 21.6797 41.3024 21.4335 41.3921 21.2027C41.4817 20.9718 41.6177 20.7612 41.7917 20.5833C41.9658 20.4054 42.1745 20.264 42.4052 20.1673C42.636 20.0707 42.8842 20.0209 43.1349 20.0209C43.3857 20.0209 43.6338 20.0707 43.8646 20.1673C44.0954 20.264 44.304 20.4054 44.4781 20.5833C44.6522 20.7612 44.7881 20.9718 44.8778 21.2027C44.9675 21.4335 45.009 21.6797 45 21.9267C45.009 22.1737 44.9675 22.42 44.8778 22.6508C44.7881 22.8816 44.6522 23.0922 44.4781 23.2701C44.304 23.448 44.0954 23.5895 43.8646 23.6861C43.6338 23.7827 43.3857 23.8325 43.1349 23.8325C42.8842 23.8325 42.636 23.7827 42.4052 23.6861C42.1745 23.5895 41.9658 23.448 41.7917 23.2701C41.6177 23.0922 41.4817 22.8816 41.3921 22.6508C41.3024 22.42 41.2608 22.1737 41.2698 21.9267Z"></path>
</g>
<defs>
<clipPath id="clip0">
<rect fill="white" height="24" width="45"></rect>
</clipPath>
</defs>
</svg>
